<svg xmlns="http://www.w3.org/2000/svg" viewBox="0 0 66.9 78.9"><defs><style>.cls-1,.cls-2{fill:none;stroke:#585c5b;stroke-linecap:round;stroke-width:1.8px;}.cls-1{stroke-linejoin:round;}.cls-2{stroke-miterlimit:10;}.cls-3{fill:#f28f16;}</style></defs><g id="Warstwa_2" data-name="Warstwa 2"><g id="Icon_Set" data-name="Icon Set"><rect class="cls-1" x="14.34" y="9.37" width="15.72" height="60.26" transform="translate(21.58 -5.81) rotate(28.55)"/><path class="cls-2" d="M46,5.9,37.49,1.27A3,3,0,0,0,33.4,2.48l-3.7,6.8,13.81,7.51,3.7-6.8A3,3,0,0,0,46,5.9Z"/><rect class="cls-3" x="37.4" y="4.05" width="3.56" height="8.52" transform="translate(13.15 38.75) rotate(-61.45)"/><line class="cls-2" x1="36.6" y1="13.03" x2="27.64" y2="29.51"/><polygon class="cls-1" points="0.9 62.21 1.49 78 14.71 69.72 0.9 62.21"/><line class="cls-1" x1="1.86" y1="78" x2="66" y2="78"/><line class="cls-1" x1="34.58" y1="69.72" x2="66" y2="69.72"/><line class="cls-1" x1="34.58" y1="61.44" x2="66" y2="61.44"/></g></g></svg>