<svg xmlns="http://www.w3.org/2000/svg" viewBox="0 0 78.3 78.3"><defs><style>.cls-1{fill:none;stroke:#585c5b;stroke-linecap:round;stroke-linejoin:round;stroke-width:1.8px;}.cls-2{fill:#f28f16;}</style></defs><g id="Warstwa_2" data-name="Warstwa 2"><g id="Icon_Set" data-name="Icon Set"><polyline class="cls-1" points="77.4 32.67 77.4 71.95 59.96 71.95"/><polyline class="cls-1" points="65.5 11.56 77.4 11.56 77.4 14.36"/><polyline class="cls-1" points="41.94 71.95 17.02 71.95 17.02 63.55"/><rect class="cls-1" x="8.96" y="8.96" width="60.38" height="60.38" transform="translate(14.54 -10.45) rotate(18.61)"/><path class="cls-1" d="M39.6,7.44a6.41,6.41,0,0,1,5.94-4h0a6.39,6.39,0,0,1,6.39,6.39V24.49a6.39,6.39,0,0,1-6.39,6.39h0a6.39,6.39,0,0,1-6.39-6.39V17.15"/><path class="cls-1" d="M44,17.15v7.34a1.59,1.59,0,0,0,1.59,1.59"/><line class="cls-1" x1="29.27" y1="35.36" x2="48.99" y2="42"/><line class="cls-1" x1="26.36" y1="43.26" x2="46.07" y2="49.9"/><path class="cls-2" d="M8.05,48.18,5.46,55.86l50.4,17,2.59-7.68C29.8,63.29,8.05,48.18,8.05,48.18Z"/></g></g></svg>