<svg xmlns="http://www.w3.org/2000/svg" viewBox="0 0 71.04 77.09"><defs><style>.cls-1{fill:none;stroke:#fff;stroke-linejoin:round;stroke-width:1.8px;}.cls-2{fill:#049dbf;}</style></defs><g id="Warstwa_2" data-name="Warstwa 2"><g id="Icon_Set" data-name="Icon Set"><path class="cls-1" d="M55.59.9H15.44S12.2,23.9,29.3,41.44H41.74C58.84,23.9,55.59.9,55.59.9Z"/><path class="cls-1" d="M56.49,76.19h0A9.17,9.17,0,0,0,47.31,67H23.72a9.17,9.17,0,0,0-9.17,9.17H56.49Z"/><path class="cls-1" d="M46.71,61.46a6.76,6.76,0,0,0-2-2c-2-1.26-5.42-3.3-5.42-7,0-4.71,2.44-6.81,2.44-6.81l-.18-4.23H29.45l-.18,4.23s2.45,2.1,2.45,6.81c0,3.69-3.46,5.73-5.42,7a6.64,6.64,0,0,0-2,2A9.55,9.55,0,0,0,22.86,67H48.18A9.64,9.64,0,0,0,46.71,61.46Z"/><path class="cls-1" d="M55.81,8.55H68.52a1.62,1.62,0,0,1,1.59,1.91c-.91,5-4.68,17.92-19.24,17.92"/><path class="cls-1" d="M15.22,8.55H2.52A1.61,1.61,0,0,0,.93,10.46c.91,5,4.67,17.92,19.24,17.92"/><path class="cls-2" d="M52.06,4.66H38.19c-.4,6-2.62,17.91-13.44,24.31a44.41,44.41,0,0,0,6.17,8.72h9.19C51,25.66,52.16,11,52.06,4.66Z"/></g></g></svg>