<svg xmlns="http://www.w3.org/2000/svg" viewBox="0 0 42.8 76.54"><defs><style>.cls-1{fill:none;stroke:#585c5b;stroke-miterlimit:10;stroke-width:1.8px;}.cls-2{fill:#f28f16;}</style></defs><g id="Warstwa_2" data-name="Warstwa 2"><g id="Icon_Set" data-name="Icon Set"><path class="cls-1" d="M4.41,69.94s-7.34-15.57,12-27.81c0,0,3-1.81,3-3.86s-3-3.86-3-3.86C-2.93,22.17,4.41,6.6,4.41,6.6"/><path class="cls-1" d="M2.73.9H40.08A1.83,1.83,0,0,1,41.9,2.73V6.6a0,0,0,0,1,0,0H.9a0,0,0,0,1,0,0V2.73A1.83,1.83,0,0,1,2.73.9Z"/><path class="cls-1" d="M.9,69.94h41a0,0,0,0,1,0,0v3.88a1.83,1.83,0,0,1-1.83,1.83H2.73A1.83,1.83,0,0,1,.9,73.82V69.94a0,0,0,0,1,0,0Z"/><path class="cls-1" d="M38.39,69.94s7.34-15.57-12-27.81c0,0-3-1.81-3-3.86s3-3.86,3-3.86c19.37-12.24,12-27.81,12-27.81"/><path class="cls-1" d="M38.39,69.94s7.34-15.57-12-27.81c0,0-3-1.81-3-3.86s3-3.86,3-3.86c19.37-12.24,12-27.81,12-27.81h-34s-7.34,15.57,12,27.81c0,0,3,1.82,3,3.86s-3,3.86-3,3.86c-19.37,12.24-12,27.81-12,27.81Z"/><path class="cls-2" d="M7,66.37H35.84a15.67,15.67,0,0,0,.22-6.14,64.83,64.83,0,0,0-29.24,0A16.23,16.23,0,0,0,7,66.37Z"/><path class="cls-2" d="M18.32,31.38a12.3,12.3,0,0,1,3.08,2.71,12.48,12.48,0,0,1,3.08-2.71C32,26.65,34.87,21.47,35.81,17.2A64.7,64.7,0,0,0,7,17.21C7.93,21.48,10.85,26.66,18.32,31.38Z"/></g></g></svg>