<svg xmlns="http://www.w3.org/2000/svg" viewBox="0 0 62.94 77.4"><defs><style>.cls-1{fill:none;stroke:#585c5b;stroke-linecap:round;stroke-miterlimit:10;stroke-width:1.8px;}.cls-2{fill:#585c5b;}.cls-3{fill:#f28f16;}</style></defs><g id="Warstwa_2" data-name="Warstwa 2"><g id="Icon_Set" data-name="Icon Set"><path class="cls-1" d="M46.51,76.5V61.36A18.38,18.38,0,0,1,50.09,51a20.6,20.6,0,0,0,3.36-6.15c2.18-6.7,3.46-19.84-11-27.55,0,0-16.27-8.41-28.71,3a16.54,16.54,0,0,0-4.84,7.8A23.11,23.11,0,0,0,8.36,37c.05.42.12.82.19,1.24a8.89,8.89,0,0,1-1.29,6.32L4,49.35a1.73,1.73,0,0,0,1.48,2.56,5.44,5.44,0,0,1,1.34.31.6.6,0,0,1,.22.94c-.37.43-.7,1.13.34,1.7a.61.61,0,0,1,.25.86c-.34.58-.53,1.43.91,1.86a.61.61,0,0,1,.44.7C8.59,60,8,65.11,12.68,65l3.88-.38A5.28,5.28,0,0,1,22.28,69a44.3,44.3,0,0,1,.53,7.55"/><line class="cls-1" x1="31.41" y1="7.8" x2="31.41" y2="0.9"/><line class="cls-1" x1="21.97" y1="9.47" x2="19.43" y2="2.49"/><line class="cls-1" x1="13.12" y1="13.72" x2="8.48" y2="8.19"/><line class="cls-1" x1="7.47" y1="19.61" x2="0.9" y2="15.82"/><line class="cls-1" x1="56.41" y1="21.07" x2="62.04" y2="17.83"/><line class="cls-1" x1="50.28" y1="14.34" x2="54.78" y2="8.97"/><line class="cls-1" x1="40.86" y1="10" x2="43.38" y2="3.07"/><path class="cls-2" d="M29.13,53.63v.18a1.12,1.12,0,0,0,1.17,1.07h0a1.12,1.12,0,0,0,1.17-1.07v-.18a1.12,1.12,0,0,0-1.17-1.08h0A1.12,1.12,0,0,0,29.13,53.63Z"/><path class="cls-2" d="M30.76,27.72c-5.1,0-8.54,2.92-9.21,7.81v.06a.92.92,0,0,0,.92,1h0a.93.93,0,0,0,.92-.85v0c.7-4.1,3.18-6.19,7.37-6.19s6.59,2.93,6.59,5.83c0,2.25-.58,3.47-4,6.3-3.19,2.69-3.84,4.54-3.84,6.48v.51a.9.9,0,0,0,.9.9h0a.9.9,0,0,0,.91-.9V48c0-1.5,1.08-3.19,3.13-4.9,3.58-3,4.77-4.55,4.77-7.88C39.24,31.62,36.59,27.72,30.76,27.72Z"/><path class="cls-3" d="M42.11,76.18V60.81a45.61,45.61,0,0,1-7,9.57,36,36,0,0,1-9.16,6.12h16.2C42.11,76.4,42.11,76.29,42.11,76.18Z"/></g></g></svg>