<svg xmlns="http://www.w3.org/2000/svg" viewBox="0 0 77.78 74.14"><defs><style>.cls-1{fill:none;stroke:#fff;stroke-miterlimit:10;stroke-width:1.8px;}.cls-2{fill:#049dbf;}</style></defs><g id="Warstwa_2" data-name="Warstwa 2"><g id="Icon_Set" data-name="Icon Set"><path class="cls-1" d="M69.71,12.12A14.61,14.61,0,0,0,55.41.9H15.71A14.64,14.64,0,0,0,1.36,12.35a20.54,20.54,0,0,0-.43,5.47l.06.9a10.82,10.82,0,0,0,5.58,8.86V60.07a6.57,6.57,0,0,0,6.58,6.58H58a6.57,6.57,0,0,0,6.58-6.58V27.58a10.82,10.82,0,0,0,5.58-8.86l.06-.9A20.25,20.25,0,0,0,69.71,12.12Z"/><path class="cls-1" d="M13.22,66.66h0a6.59,6.59,0,0,0,6.59,6.58H64.63a6.59,6.59,0,0,0,6.58-6.59v-34a10.84,10.84,0,0,0,5.58-8.86l0-.9a20.53,20.53,0,0,0-.48-5.74c-1-4.37-4-6.35-7.79-8.2"/><path class="cls-1" d="M36.43,11a.87.87,0,1,0-.87.87A.87.87,0,0,0,36.43,11Z"/><path class="cls-1" d="M50.52,11a.88.88,0,1,0-.88.87A.87.87,0,0,0,50.52,11Z"/><path class="cls-1" d="M22.35,11a.88.88,0,1,0-.87.87A.87.87,0,0,0,22.35,11Z"/><circle class="cls-1" cx="28.38" cy="17.81" r="0.87"/><path class="cls-1" d="M43.34,17.81a.87.87,0,1,0-.87.87A.87.87,0,0,0,43.34,17.81Z"/><path class="cls-2" d="M10.19,60.07a3,3,0,0,0,3,3H58a3,3,0,0,0,3-3V40.66c-5.27,2.87-17.75,13.89-50.74,13.89Z"/></g></g></svg>