<svg xmlns="http://www.w3.org/2000/svg" viewBox="0 0 77.63 70.74"><defs><style>.cls-1,.cls-2{fill:none;stroke:#fff;stroke-miterlimit:10;stroke-width:1.8px;}.cls-1{stroke-linecap:round;}.cls-3{fill:#049dbf;}</style></defs><g id="Warstwa_2" data-name="Warstwa 2"><g id="Icon_Set" data-name="Icon Set"><path class="cls-1" d="M21.74,47.8H5.24A4.34,4.34,0,0,1,.9,43.46V5.24A4.34,4.34,0,0,1,5.24.9H72.39a4.34,4.34,0,0,1,4.34,4.34V43.46a4.34,4.34,0,0,1-4.34,4.34H55.88"/><path class="cls-2" d="M51.19,47.71A12.38,12.38,0,1,0,38.81,60.08,12.38,12.38,0,0,0,51.19,47.71Z"/><path class="cls-3" d="M40.31,39.68a6.73,6.73,0,1,1-9.52,9.52,8.16,8.16,0,1,0,9.52-9.52Z"/><path class="cls-1" d="M51.22,34.46a17.53,17.53,0,0,0-24.81,0"/><polyline class="cls-1" points="42.28 59.85 50.99 68.56 50.99 59.88 59.67 59.88 50.96 51.17"/><polyline class="cls-1" points="35.35 59.85 26.64 68.56 26.64 59.88 17.96 59.88 26.67 51.17"/><line class="cls-1" x1="55.14" y1="20.46" x2="22.83" y2="20.46"/><line class="cls-1" x1="17.11" y1="12.92" x2="60.8" y2="12.92"/></g></g></svg>