<svg xmlns="http://www.w3.org/2000/svg" viewBox="0 0 87.09 79.84"><defs><style>.cls-1{fill:#049dbf;}.cls-2{fill:none;stroke:#585c5b;stroke-miterlimit:10;stroke-width:1.8px;}.cls-3{fill:#f28f16;}</style></defs><g id="Warstwa_2" data-name="Warstwa 2"><g id="Icon_Set" data-name="Icon Set"><path class="cls-1" d="M39.15,29.46V27.17h3.51V18.31L39.6,20l-.84-2.09,4.38-2.31H45.3V27.17h3v2.29Z"/><path class="cls-1" d="M10.47,41.56v-1.9l3.26-3.26c.61-.61,1.1-1.14,1.47-1.58a8.24,8.24,0,0,0,.85-1.19,3.4,3.4,0,0,0,.4-1,4.63,4.63,0,0,0,.09-.92,2.25,2.25,0,0,0-.12-.74,1.73,1.73,0,0,0-1-1,2.26,2.26,0,0,0-.85-.15,3.38,3.38,0,0,0-1.51.35,5.52,5.52,0,0,0-1.31.95l-1.36-1.75a7.26,7.26,0,0,1,2-1.34,5.9,5.9,0,0,1,2.43-.5,6.18,6.18,0,0,1,1.83.26,3.85,3.85,0,0,1,1.41.77A3.35,3.35,0,0,1,19,29.83a4.55,4.55,0,0,1,.32,1.75,5.46,5.46,0,0,1-.22,1.54,6.17,6.17,0,0,1-.65,1.38,8.74,8.74,0,0,1-1,1.35c-.41.45-.88.93-1.4,1.43l-2,1.91h5.81v2.37Z"/><path class="cls-1" d="M76.62,37.35a4.35,4.35,0,0,1-.38,1.84,3.46,3.46,0,0,1-1.17,1.39,5.51,5.51,0,0,1-2,.88,11.12,11.12,0,0,1-2.81.31l-.75,0-.79,0L68,41.65l-.66-.09V39.32a13.71,13.71,0,0,0,1.49.21c.55,0,1.13.08,1.72.08a6.58,6.58,0,0,0,1.51-.15,3.16,3.16,0,0,0,1-.43,1.66,1.66,0,0,0,.6-.69,2.12,2.12,0,0,0,.2-.93,1.74,1.74,0,0,0-.2-.82,1.92,1.92,0,0,0-.61-.63,3.65,3.65,0,0,0-1-.4,7.43,7.43,0,0,0-1.52-.14H69v-2H70.4a5.12,5.12,0,0,0,1.36-.16,2.53,2.53,0,0,0,.87-.44,1.65,1.65,0,0,0,.46-.65,2.3,2.3,0,0,0,.13-.79,1.53,1.53,0,0,0-.55-1.28A2.69,2.69,0,0,0,71,29.7a8.92,8.92,0,0,0-1.63.16q-.8.16-1.65.42V28.12c.31-.1.62-.19.9-.26l.87-.18a8.62,8.62,0,0,1,.87-.11c.3,0,.61,0,.92,0a7.46,7.46,0,0,1,2,.24,4.55,4.55,0,0,1,1.45.7,2.82,2.82,0,0,1,.88,1.09A3.48,3.48,0,0,1,75.88,31a3.32,3.32,0,0,1-.57,2,3.66,3.66,0,0,1-1.61,1.19,4.42,4.42,0,0,1,1.2.36,3,3,0,0,1,.92.67,2.68,2.68,0,0,1,.59.93A3.13,3.13,0,0,1,76.62,37.35Z"/><path class="cls-2" d="M35.86,38.84H51.22a6.53,6.53,0,0,1,6.53,6.53V78.94a0,0,0,0,1,0,0H29.33a0,0,0,0,1,0,0V45.37A6.53,6.53,0,0,1,35.86,38.84Z"/><path class="cls-2" d="M57.76,53.29H79.65a6.53,6.53,0,0,1,6.53,6.53V78.94a0,0,0,0,1,0,0H57.76a0,0,0,0,1,0,0V53.29A0,0,0,0,1,57.76,53.29Z"/><path class="cls-2" d="M57.76,53.29H79.65a6.53,6.53,0,0,1,6.53,6.53V78.94a0,0,0,0,1,0,0H57.76a0,0,0,0,1,0,0V53.29A0,0,0,0,1,57.76,53.29Z"/><path class="cls-2" d="M7.43,53.29H29.33a0,0,0,0,1,0,0V78.94a0,0,0,0,1,0,0H.9a0,0,0,0,1,0,0V59.83A6.53,6.53,0,0,1,7.43,53.29Z"/><line class="cls-2" x1="43.54" y1="5.48" x2="43.54"/><line class="cls-2" x1="38.59" y1="6.55" x2="36.41" y2="1.55"/><line class="cls-2" x1="34.49" y1="9.59" x2="30.51" y2="5.93"/><line class="cls-2" x1="52.6" y1="9.59" x2="56.58" y2="5.93"/><line class="cls-2" x1="48.5" y1="6.55" x2="50.68" y2="1.55"/><path class="cls-3" d="M33.54,60.88V74.66h20V47S48.07,60.72,33.54,60.88Z"/></g></g></svg>