<svg xmlns="http://www.w3.org/2000/svg" viewBox="0 0 78.91 78.32"><defs><style>.cls-1{fill:#049dbf;}.cls-2,.cls-3{fill:none;stroke:#fff;stroke-miterlimit:10;stroke-width:1.8px;}.cls-3{stroke-linecap:round;}</style></defs><g id="Warstwa_2" data-name="Warstwa 2"><g id="Icon_Set" data-name="Icon Set"><path class="cls-1" d="M39.45,15.24l3.38,6.83a5,5,0,0,0,3.79,2.76l7.54,1.1h0l-5.45,5.32a5,5,0,0,0-1.45,4.46l1.29,7.51L41.8,39.68a5,5,0,0,0-4.69,0l-6.75,3.54,1.29-7.51a5,5,0,0,0-1.45-4.46l-5.46-5.32h0l7.54-1.1a5,5,0,0,0,3.8-2.76Z"/><circle class="cls-2" cx="39.45" cy="29.3" r="28.4" transform="translate(-5.68 9.85) rotate(-13.28)"/><path class="cls-3" d="M61.61,29.3a22.16,22.16,0,0,0-44.32,0"/><polyline class="cls-3" points="65.43 48.86 76.86 64.34 62.87 62.03 60.56 76.03 46.8 56.84"/><polyline class="cls-3" points="13.48 48.86 2.04 64.34 16.04 62.03 18.35 76.03 32.11 56.84"/></g></g></svg>