<svg xmlns="http://www.w3.org/2000/svg" viewBox="0 0 53.46 78.86"><defs><style>.cls-1{fill:none;stroke:#fff;stroke-linecap:round;stroke-miterlimit:10;stroke-width:1.8px;}.cls-2{fill:#f28f16;}</style></defs><g id="Warstwa_2" data-name="Warstwa 2"><g id="Icon_Set" data-name="Icon Set"><path class="cls-1" d="M47.24,30.92A20.51,20.51,0,1,0,12.11,45.3a12.22,12.22,0,0,1,3.62,8.57V54h22v-.08a11.81,11.81,0,0,1,3.45-8.39A20.41,20.41,0,0,0,47.24,30.92Z"/><path class="cls-1" d="M12.45,29.59A14.38,14.38,0,0,1,25.71,16.51q.51,0,1,0a14.31,14.31,0,0,1,9.47,3.57"/><line class="cls-1" x1="15.6" y1="58.27" x2="37.85" y2="58.27"/><path class="cls-1" d="M15.6,62.68H37.85a0,0,0,0,1,0,0v1.48a9.16,9.16,0,0,1-9.16,9.16H24.77a9.16,9.16,0,0,1-9.16-9.16V62.68a0,0,0,0,1,0,0Z"/><path class="cls-1" d="M23.44,73.51v1.16A3.29,3.29,0,0,0,26.73,78h0A3.29,3.29,0,0,0,30,74.67V73.5"/><path class="cls-2" d="M19.84,49.15A17.12,17.12,0,0,0,17.28,44c13.46-.31,21.46-7.12,25-11.18a15.59,15.59,0,0,1-4.54,9.25,16.41,16.41,0,0,0-4.19,7.08Z"/><line class="cls-1" x1="26.73" y1="5.61" x2="26.73" y2="0.9"/><line class="cls-1" x1="18.06" y1="7.32" x2="16.45" y2="2.9"/><line class="cls-1" x1="10.51" y1="11.9" x2="7.49" y2="8.29"/><line class="cls-1" x1="4.98" y1="18.78" x2="0.9" y2="16.42"/><line class="cls-1" x1="35.39" y1="7.32" x2="37" y2="2.9"/><line class="cls-1" x1="42.95" y1="11.9" x2="45.97" y2="8.29"/><line class="cls-1" x1="48.48" y1="18.78" x2="52.56" y2="16.42"/></g></g></svg>