<?xml version="1.0" encoding="utf-8"?>
<!-- Generator: Adobe Illustrator 26.0.3, SVG Export Plug-In . SVG Version: 6.00 Build 0)  -->
<svg version="1.1" id="Warstwa_1" xmlns="http://www.w3.org/2000/svg" xmlns:xlink="http://www.w3.org/1999/xlink" x="0px" y="0px"
	 viewBox="0 0 78.1 78.1" style="enable-background:new 0 0 78.1 78.1;" xml:space="preserve">
<style type="text/css">
	.st0{fill:none;stroke:#585C5B;stroke-width:1.8;stroke-linecap:round;stroke-miterlimit:10;}
	.st1{fill:#049DBF;}
</style>
<g id="Warstwa_2_00000004520085177843228710000014485058267604849299_">
	<g id="Icon_Set">
		<path class="st0" d="M35,2L1.8,12.5c-0.7,0.2-1,0.9-0.8,1.6c0.1,0.4,0.4,0.7,0.8,0.8L35,25.3c2.6,0.8,5.5,0.8,8.1,0l33.2-10.4
			c0.7-0.2,1-0.9,0.8-1.6c-0.1-0.4-0.4-0.7-0.8-0.8L43.1,2C40.5,1.2,37.6,1.2,35,2z"/>
		<path class="st1" d="M34,7.6c-1-0.3-2-0.5-3-0.5l5-1.6C37,5.2,38,5,39,5c1,0,2,0.2,3,0.5l26.1,8.2L60.8,16L34,7.6z"/>
		<path class="st0" d="M63.7,19.1v23c0,1.5-0.9,2.8-2.2,3.4c-14.3,6.5-30.6,6.5-44.9,0c-1.4-0.6-2.2-2-2.2-3.5v-23"/>
		<line class="st0" x1="4.8" y1="16.3" x2="4.8" y2="58.4"/>
		<path class="st0" d="M8.2,61.8c0-1.9-1.5-3.4-3.3-3.4s-3.4,1.5-3.4,3.3c0,1.9,1.5,3.4,3.3,3.4c0,0,0,0,0,0
			C6.7,65.1,8.2,63.6,8.2,61.8C8.2,61.8,8.2,61.8,8.2,61.8z"/>
		<path class="st0" d="M3,68.3C1.7,71,1,74,0.9,77h7.8c-0.1-3-0.8-6-2.1-8.6"/>
	</g>
</g>
</svg>
